<?xml version="1.0" encoding="utf-8"?>
<svg width="800px" height="800px" viewBox="0 0 24 24" fill="none" xmlns="http://www.w3.org/2000/svg">
  <path d="M12 2C6.48 2 2 6.48 2 12C2 17.52 6.48 22 12 22C17.52 22 22 17.52 22 12C22 6.48 17.52 2 12 2Z" stroke="#e8b30b" stroke-width="1.5" stroke-linecap="round" stroke-linejoin="round"/>
  <path d="M8.5 14.5C8.5 15.88 9.62 17 11 17H13C14.38 17 15.5 15.88 15.5 14.5C15.5 13.12 14.38 12 13 12H11C9.62 12 8.5 10.88 8.5 9.5C8.5 8.12 9.62 7 11 7H13C14.38 7 15.5 8.12 15.5 9.5" stroke="#e8b30b" stroke-width="1.5" stroke-linecap="round" stroke-linejoin="round"/>
  <path d="M12 5.5V7M12 17V18.5" stroke="#e8b30b" stroke-width="1.5" stroke-linecap="round" stroke-linejoin="round"/>
</svg>