<?xml version="1.0" encoding="utf-8"?><!-- Uploaded to: SVG Repo, www.svgrepo.com, Generator: SVG Repo Mixer Tools -->
<svg width="800px" height="800px" viewBox="0 0 24 24" fill="none" xmlns="http://www.w3.org/2000/svg">
<path d="M12 2C6.48 2 2 6.48 2 12C2 17.52 6.48 22 12 22C17.52 22 22 17.52 22 12C22 6.48 17.52 2 12 2Z" stroke="#e8b30b" stroke-width="1.5" stroke-linecap="round" stroke-linejoin="round"/>
<path d="M8 11V9C8 6.79 9.79 5 12 5C14.21 5 16 6.79 16 9V11" stroke="#e8b30b" stroke-width="1.5" stroke-linecap="round" stroke-linejoin="round"/>
<path d="M7 13C7 12.45 7.45 12 8 12H16C16.55 12 17 12.45 17 13V17C17 17.55 16.55 18 16 18H8C7.45 18 7 17.55 7 17V13Z" stroke="#e8b30b" stroke-width="1.5" stroke-linecap="round" stroke-linejoin="round"/>
</svg>