<?xml version="1.0" encoding="UTF-8"?>
<svg xmlns="http://www.w3.org/2000/svg" version="1.1" viewBox="0 0 1920 1080">
  <defs>
    <style>
      .cls-1 {
        fill: #ffca28;
      }

      .cls-2 {
        fill: #8dc1db;
      }

      .cls-3 {
        fill: #f9bb00;
      }

      .cls-4 {
        fill: #9bd5f9;
      }

      .cls-5 {
        fill: #efab00;
      }
    </style>
  </defs>
  <!-- Generator: Adobe Illustrator 28.7.4, SVG Export Plug-In . SVG Version: 1.2.0 Build 166)  -->
  <g>
    <g id="Layer_1">
      <rect class="cls-4" width="1920" height="1080"/>
      <path class="cls-2" d="M1171.4,601.3c-12.1-9.4-24.6-18.1-37.6-25.9-23.3-14.1-48-25.4-74.3-33.7-11.2-3.5-21.9-6.2-32.2-8-9.9-2.6-19.8-5.1-29.7-7.8-31.8-8.6-61.4-13-86.7-9.5-23.7,1.6-41.5,8-55.9,17.3-7.1,4.5-13.1,9.6-18,15.2l-25.9-31.2c-3.9-4.6-8.5-9.1-13.9-13.4-2.1-4.6-5-9.3-8.8-13.9l-34-41c-3.9-4.6-8.5-9.1-13.8-13.3-2.1-4.7-5-9.3-8.9-14l-34-41c-39.7-47.8-158.5-71.2-265.3-52.2-106.9,18.9-164.2,68.2-128.1,110.1l31,35.9c3.5,4.1,7.8,8,12.8,11.7,1.7,4.1,4.3,8.2,7.8,12.3l31,35.9c3.5,4.1,7.8,8,12.8,11.7,1.7,4.1,4.3,8.2,7.8,12.2l31,35.9c3.5,4.1,7.8,8,12.9,11.8,1.7,4,4.3,8.1,7.8,12.2l31,35.9c3.5,4.1,7.8,8,12.9,11.8,1.7,4,4.2,8.1,7.8,12.1l31,35.9c3.5,4.1,7.9,8,12.9,11.9,1.7,4,4.2,8,7.7,12.1l31,35.9c36.1,41.9,161.3,75.8,279.7,75.8s152.6-23.7,154.3-57.2c15.1,4.6,30.2,9,45.3,13.5,41.8,15.1,79.5,20.3,113.4,17.1,16.8-1.6,30.6-5.5,41.9-11.4,16.3-8.2,27.1-20,33-35,5.7-14.9,6.3-31.9,1.8-50.8-5-20.9-15.7-42.7-32.7-65.5-15.4-20.5-34.3-40.5-58.4-59.4Z"/>
      <g>
        <path class="cls-5" d="M1257.6,729.8c-36.2-34.3-107.1-57.6-188.8-57.6s-152.6,23.3-188.8,57.6h-25.5v51.8c0,60.4,95.9,109.4,214.3,109.4s214.3-49,214.3-109.4v-51.8h-25.5Z"/>
        <ellipse class="cls-1" cx="1068.8" cy="729.8" rx="214.3" ry="109.4"/>
        <path class="cls-3" d="M1068.8,810.4c-105.4,0-184.1-42.5-184.1-80.6s78.7-80.6,184.1-80.6,184.1,42.5,184.1,80.6-78.7,80.6-184.1,80.6Z"/>
        <path class="cls-1" d="M1037.1,739c-3.5.1-7,.1-10.5.5-7.6.8-15.3.1-22.9-.3-12.2-.8-24.1-3-35.7-6.4-5.7-1.7-11.4-3.5-16.6-6.4-10.8-6.1-11.3-16.7-1-23.6,5.4-3.6,11.6-5,18-5.7,5-.6,10-1,14.9-1.4,1.3-.1,2.6-.5,3.8-1,2.8-1.1,3.6-2.5,3.2-5.3-.3-2.4-.9-4.7-.7-7.2.6-6.8,4.6-11.3,10.7-14.2,12-5.8,34.2-6.7,48.1,6.1,4.4,4.1,8.9,8.1,12.7,12.7,2.4,2.9,2.5,2.9,4.6-.3,3.2-5,7.3-9.4,11.9-13.4,4.6-4.1,9.9-6.6,15.9-7.9,9.4-1.9,18.8-1.5,27.9,1.5,9.4,3.2,14.5,9.7,15.8,19.1.8,6.1,1.2,6.2,7.7,5.3,10.7-1.5,21.4-1.6,32,.7,5.5,1.2,10.3,3.5,14.2,7.6,5.2,5.5,4.2,13.4-2.5,18-5.4,3.7-11.6,5.8-17.7,8-7.1,2.6-14.3,4.7-21.7,6.1-.6.1-1.3.1-1.8.9.9,1,2.2,1.2,3.4,1.6,8,2.6,16.1,5.1,23.3,9.3,4.2,2.5,7.5,5.7,7.8,10.7.4,5.5-2.8,9.2-7.2,12-6.5,4.2-13.9,5.3-21.6,5.7-5.2.3-10.5-.3-15.7.4-7.1.9-12.4,3.8-14.7,10.9-2.3,7.3-8.5,10.9-15.7,13-10.7,3-21.5,3-32.2-.7-4.6-1.6-8.3-4.5-11.7-7.6-5.9-5.3-10.8-11.3-13.8-18.6-1.8-4.3-2.8-8.8-2.6-13.5,0-1,.3-2.2-.9-2.7-.9-.4-1.6.6-2.3,1.1-14.8,11-31.2,19-48.7,25.2-6,2.1-12,4.3-18.3,5.4-6,1-11.9.7-17.6-1.8-1.1-.5-2.2-1.2-3.1-1.9-6-4.5-5.7-10.5.8-14.4,2.3-1.4,4.8-2.3,7.5-2.8,14.6-2.5,29-5.6,42.9-10.3,9.7-3.3,19.1-7.4,28-12.6.6-.3,1.1-.7,1.6-1.1,0,0,0-.3.2-.7Z"/>
        <path class="cls-5" d="M1257.6,643.5c-36.2-34.3-107.1-57.6-188.8-57.6s-152.6,23.3-188.8,57.6h-25.5v51.8c0,60.4,95.9,109.4,214.3,109.4s214.3-49,214.3-109.4v-51.8h-25.5Z"/>
        <ellipse class="cls-1" cx="1068.8" cy="643.5" rx="214.3" ry="109.4"/>
        <path class="cls-3" d="M1068.8,724.1c-105.4,0-184.1-42.5-184.1-80.6s78.7-80.6,184.1-80.6,184.1,42.5,184.1,80.6-78.7,80.6-184.1,80.6Z"/>
        <path class="cls-1" d="M1037.1,652.7c-3.5.1-7,.1-10.5.5-7.6.8-15.3.1-22.9-.3-12.2-.8-24.1-3-35.7-6.4-5.7-1.7-11.4-3.5-16.6-6.4-10.8-6.1-11.3-16.7-1-23.6,5.4-3.6,11.6-5,18-5.7,5-.6,10-1,14.9-1.4,1.3-.1,2.6-.5,3.8-1,2.8-1.1,3.6-2.5,3.2-5.3-.3-2.4-.9-4.7-.7-7.2.6-6.8,4.6-11.3,10.7-14.2,12-5.8,34.2-6.7,48.1,6.1,4.4,4.1,8.9,8.1,12.7,12.7,2.4,2.9,2.5,2.9,4.6-.3,3.2-5,7.3-9.4,11.9-13.4,4.6-4.1,9.9-6.6,15.9-7.9,9.4-1.9,18.8-1.5,27.9,1.5,9.4,3.2,14.5,9.7,15.8,19.1.8,6.1,1.2,6.2,7.7,5.3,10.7-1.5,21.4-1.6,32,.7,5.5,1.2,10.3,3.5,14.2,7.6,5.2,5.5,4.2,13.4-2.5,18-5.4,3.7-11.6,5.8-17.7,8-7.1,2.6-14.3,4.7-21.7,6.1-.6.1-1.3.1-1.8.9.9,1,2.2,1.2,3.4,1.6,8,2.6,16.1,5.1,23.3,9.3,4.2,2.5,7.5,5.7,7.8,10.7.4,5.5-2.8,9.2-7.2,12-6.5,4.2-13.9,5.3-21.6,5.7-5.2.3-10.5-.3-15.7.4-7.1.9-12.4,3.8-14.7,10.9-2.3,7.3-8.5,10.9-15.7,13-10.7,3-21.5,3-32.2-.7-4.6-1.6-8.3-4.5-11.7-7.6-5.9-5.3-10.8-11.3-13.8-18.6-1.8-4.3-2.8-8.8-2.6-13.5,0-1,.3-2.2-.9-2.7-.9-.4-1.6.6-2.3,1.1-14.8,11-31.2,19-48.7,25.2-6,2.1-12,4.3-18.3,5.4-6,1-11.9.7-17.6-1.8-1.1-.5-2.2-1.2-3.1-1.9-6-4.5-5.7-10.5.8-14.4,2.3-1.4,4.8-2.3,7.5-2.8,14.6-2.5,29-5.6,42.9-10.3,9.7-3.3,19.1-7.4,28-12.6.6-.3,1.1-.7,1.6-1.1,0,0,0-.3.2-.7Z"/>
        <path class="cls-5" d="M1257.6,557.1c-36.2-34.3-107.1-57.6-188.8-57.6s-152.6,23.3-188.8,57.6h-25.5v51.8c0,60.4,95.9,109.4,214.3,109.4s214.3-49,214.3-109.4v-51.8h-25.5Z"/>
        <ellipse class="cls-1" cx="1068.8" cy="557.1" rx="214.3" ry="109.4"/>
        <path class="cls-3" d="M1068.8,637.7c-105.4,0-184.1-42.5-184.1-80.6s78.7-80.6,184.1-80.6,184.1,42.5,184.1,80.6-78.7,80.6-184.1,80.6Z"/>
        <path class="cls-1" d="M1037.1,566.3c-3.5.1-7,.1-10.5.5-7.6.8-15.3.1-22.9-.3-12.2-.8-24.1-3-35.7-6.4-5.7-1.7-11.4-3.5-16.6-6.4-10.8-6.1-11.3-16.7-1-23.6,5.4-3.6,11.6-5,18-5.7,5-.6,10-1,14.9-1.4,1.3-.1,2.6-.5,3.8-1,2.8-1.1,3.6-2.5,3.2-5.3-.3-2.4-.9-4.7-.7-7.2.6-6.8,4.6-11.3,10.7-14.2,12-5.8,34.2-6.7,48.1,6.1,4.4,4.1,8.9,8.1,12.7,12.7,2.4,2.9,2.5,2.9,4.6-.3,3.2-5,7.3-9.4,11.9-13.4,4.6-4.1,9.9-6.6,15.9-7.9,9.4-1.9,18.8-1.5,27.9,1.5,9.4,3.2,14.5,9.7,15.8,19.1.8,6.1,1.2,6.2,7.7,5.3,10.7-1.5,21.4-1.6,32,.7,5.5,1.2,10.3,3.5,14.2,7.6,5.2,5.5,4.2,13.4-2.5,18-5.4,3.7-11.6,5.8-17.7,8-7.1,2.6-14.3,4.7-21.7,6.1-.6.1-1.3.1-1.8.9.9,1,2.2,1.2,3.4,1.6,8,2.6,16.1,5.1,23.3,9.3,4.2,2.5,7.5,5.7,7.8,10.7.4,5.5-2.8,9.2-7.2,12-6.5,4.2-13.9,5.3-21.6,5.7-5.2.3-10.5-.3-15.7.4-7.1.9-12.4,3.8-14.7,10.9-2.3,7.3-8.5,10.9-15.7,13-10.7,3-21.5,3-32.2-.7-4.6-1.6-8.3-4.5-11.7-7.6-5.9-5.3-10.8-11.3-13.8-18.6-1.8-4.3-2.8-8.8-2.6-13.5,0-1,.3-2.2-.9-2.7-.9-.4-1.6.6-2.3,1.1-14.8,11-31.2,19-48.7,25.2-6,2.1-12,4.3-18.3,5.4-6,1-11.9.7-17.6-1.8-1.1-.5-2.2-1.2-3.1-1.9-6-4.5-5.7-10.5.8-14.4,2.3-1.4,4.8-2.3,7.5-2.8,14.6-2.5,29-5.6,42.9-10.3,9.7-3.3,19.1-7.4,28-12.6.6-.3,1.1-.7,1.6-1.1,0,0,0-.3.2-.7Z"/>
        <path class="cls-5" d="M1257.6,470.8c-36.2-34.3-107.1-57.6-188.8-57.6s-152.6,23.3-188.8,57.6h-25.5v51.8c0,60.4,95.9,109.4,214.3,109.4s214.3-49,214.3-109.4v-51.8h-25.5Z"/>
        <ellipse class="cls-1" cx="1068.8" cy="470.8" rx="214.3" ry="109.4"/>
        <path class="cls-3" d="M1068.8,551.4c-105.4,0-184.1-42.5-184.1-80.6s78.7-80.6,184.1-80.6,184.1,42.5,184.1,80.6-78.7,80.6-184.1,80.6Z"/>
        <path class="cls-1" d="M1037.1,480c-3.5.1-7,.1-10.5.5-7.6.8-15.3.1-22.9-.3-12.2-.8-24.1-3-35.7-6.4-5.7-1.7-11.4-3.5-16.6-6.4-10.8-6.1-11.3-16.7-1-23.6,5.4-3.6,11.6-5,18-5.7,5-.6,10-1,14.9-1.4,1.3-.1,2.6-.5,3.8-1,2.8-1.1,3.6-2.5,3.2-5.3-.3-2.4-.9-4.7-.7-7.2.6-6.8,4.6-11.3,10.7-14.2,12-5.8,34.2-6.7,48.1,6.1,4.4,4.1,8.9,8.1,12.7,12.7,2.4,2.9,2.5,2.9,4.6-.3,3.2-5,7.3-9.4,11.9-13.4,4.6-4.1,9.9-6.6,15.9-7.9,9.4-1.9,18.8-1.5,27.9,1.5,9.4,3.2,14.5,9.7,15.8,19.1.8,6.1,1.2,6.2,7.7,5.3,10.7-1.5,21.4-1.6,32,.7,5.5,1.2,10.3,3.5,14.2,7.6,5.2,5.5,4.2,13.4-2.5,18-5.4,3.7-11.6,5.8-17.7,8-7.1,2.6-14.3,4.7-21.7,6.1-.6.1-1.3.1-1.8.9.9,1,2.2,1.2,3.4,1.6,8,2.6,16.1,5.1,23.3,9.3,4.2,2.5,7.5,5.7,7.8,10.7.4,5.5-2.8,9.2-7.2,12-6.5,4.2-13.9,5.3-21.6,5.7-5.2.3-10.5-.3-15.7.4-7.1.9-12.4,3.8-14.7,10.9-2.3,7.3-8.5,10.9-15.7,13-10.7,3-21.5,3-32.2-.7-4.6-1.6-8.3-4.5-11.7-7.6-5.9-5.3-10.8-11.3-13.8-18.6-1.8-4.3-2.8-8.8-2.6-13.5,0-1,.3-2.2-.9-2.7-.9-.4-1.6.6-2.3,1.1-14.8,11-31.2,19-48.7,25.2-6,2.1-12,4.3-18.3,5.4-6,1-11.9.7-17.6-1.8-1.1-.5-2.2-1.2-3.1-1.9-6-4.5-5.7-10.5.8-14.4,2.3-1.4,4.8-2.3,7.5-2.8,14.6-2.5,29-5.6,42.9-10.3,9.7-3.3,19.1-7.4,28-12.6.6-.3,1.1-.7,1.6-1.1,0,0,0-.3.2-.7Z"/>
        <path class="cls-5" d="M1257.6,384.4c-36.2-34.3-107.1-57.6-188.8-57.6s-152.6,23.3-188.8,57.6h-25.5v51.8c0,60.4,95.9,109.4,214.3,109.4s214.3-49,214.3-109.4v-51.8h-25.5Z"/>
        <ellipse class="cls-1" cx="1068.8" cy="384.4" rx="214.3" ry="109.4"/>
        <path class="cls-3" d="M1068.8,465c-105.4,0-184.1-42.5-184.1-80.6s78.7-80.6,184.1-80.6,184.1,42.5,184.1,80.6-78.7,80.6-184.1,80.6Z"/>
        <path class="cls-1" d="M1037.1,393.6c-3.5.1-7,.1-10.5.5-7.6.8-15.3.1-22.9-.3-12.2-.8-24.1-3-35.7-6.4-5.7-1.7-11.4-3.5-16.6-6.4-10.8-6.1-11.3-16.7-1-23.6,5.4-3.6,11.6-5,18-5.7,5-.6,10-1,14.9-1.4,1.3-.1,2.6-.5,3.8-1,2.8-1.1,3.6-2.5,3.2-5.3-.3-2.4-.9-4.7-.7-7.2.6-6.8,4.6-11.3,10.7-14.2,12-5.8,34.2-6.7,48.1,6.1,4.4,4.1,8.9,8.1,12.7,12.7,2.4,2.9,2.5,2.9,4.6-.3,3.2-5,7.3-9.4,11.9-13.4,4.6-4.1,9.9-6.6,15.9-7.9,9.4-1.9,18.8-1.5,27.9,1.5,9.4,3.2,14.5,9.7,15.8,19.1.8,6.1,1.2,6.2,7.7,5.3,10.7-1.5,21.4-1.6,32,.7,5.5,1.2,10.3,3.5,14.2,7.6,5.2,5.5,4.2,13.4-2.5,18-5.4,3.7-11.6,5.8-17.7,8-7.1,2.6-14.3,4.7-21.7,6.1-.6.1-1.3.1-1.8.9.9,1,2.2,1.2,3.4,1.6,8,2.6,16.1,5.1,23.3,9.3,4.2,2.5,7.5,5.7,7.8,10.7.4,5.5-2.8,9.2-7.2,12-6.5,4.2-13.9,5.3-21.6,5.7-5.2.3-10.5-.3-15.7.4-7.1.9-12.4,3.8-14.7,10.9-2.3,7.3-8.5,10.9-15.7,13-10.7,3-21.5,3-32.2-.7-4.6-1.6-8.3-4.5-11.7-7.6-5.9-5.3-10.8-11.3-13.8-18.6-1.8-4.3-2.8-8.8-2.6-13.5,0-1,.3-2.2-.9-2.7-.9-.4-1.6.6-2.3,1.1-14.8,11-31.2,19-48.7,25.2-6,2.1-12,4.3-18.3,5.4-6,1-11.9.7-17.6-1.8-1.1-.5-2.2-1.2-3.1-1.9-6-4.5-5.7-10.5.8-14.4,2.3-1.4,4.8-2.3,7.5-2.8,14.6-2.5,29-5.6,42.9-10.3,9.7-3.3,19.1-7.4,28-12.6.6-.3,1.1-.7,1.6-1.1,0,0,0-.3.2-.7Z"/>
        <g>
          <path class="cls-5" d="M1257.6,298.1c-36.2-34.3-107.1-57.6-188.8-57.6s-152.6,23.3-188.8,57.6h-25.5v51.8c0,60.4,95.9,109.4,214.3,109.4s214.3-49,214.3-109.4v-51.8h-25.5Z"/>
          <ellipse class="cls-1" cx="1068.8" cy="298.1" rx="214.3" ry="109.4"/>
          <path class="cls-3" d="M1068.8,378.7c-105.4,0-184.1-42.5-184.1-80.6s78.7-80.6,184.1-80.6,184.1,42.5,184.1,80.6-78.7,80.6-184.1,80.6Z"/>
          <path class="cls-1" d="M1037.1,307.3c-3.5.1-7,.1-10.5.5-7.6.8-15.3.1-22.9-.3-12.2-.8-24.1-3-35.7-6.4-5.7-1.7-11.4-3.5-16.6-6.4-10.8-6.1-11.3-16.7-1-23.6,5.4-3.6,11.6-5,18-5.7,5-.6,10-1,14.9-1.4,1.3-.1,2.6-.5,3.8-1,2.8-1.1,3.6-2.5,3.2-5.3-.3-2.4-.9-4.7-.7-7.2.6-6.8,4.6-11.3,10.7-14.2,12-5.8,34.2-6.7,48.1,6.1,4.4,4.1,8.9,8.1,12.7,12.7,2.4,2.9,2.5,2.9,4.6-.3,3.2-5,7.3-9.4,11.9-13.4,4.6-4.1,9.9-6.6,15.9-7.9,9.4-1.9,18.8-1.5,27.9,1.5,9.4,3.2,14.5,9.7,15.8,19.1.8,6.1,1.2,6.2,7.7,5.3,10.7-1.5,21.4-1.6,32,.7,5.5,1.2,10.3,3.5,14.2,7.6,5.2,5.5,4.2,13.4-2.5,18-5.4,3.7-11.6,5.8-17.7,8-7.1,2.6-14.3,4.7-21.7,6.1-.6.1-1.3.1-1.8.9.9,1,2.2,1.2,3.4,1.6,8,2.6,16.1,5.1,23.3,9.3,4.2,2.5,7.5,5.7,7.8,10.7.4,5.5-2.8,9.2-7.2,12-6.5,4.2-13.9,5.3-21.6,5.7-5.2.3-10.5-.3-15.7.4-7.1.9-12.4,3.8-14.7,10.9-2.3,7.3-8.5,10.9-15.7,13-10.7,3-21.5,3-32.2-.7-4.6-1.6-8.3-4.5-11.7-7.6-5.9-5.3-10.8-11.3-13.8-18.6-1.8-4.3-2.8-8.8-2.6-13.5,0-1,.3-2.2-.9-2.7-.9-.4-1.6.6-2.3,1.1-14.8,11-31.2,19-48.7,25.2-6,2.1-12,4.3-18.3,5.4-6,1-11.9.7-17.6-1.8-1.1-.5-2.2-1.2-3.1-1.9-6-4.5-5.7-10.5.8-14.4,2.3-1.4,4.8-2.3,7.5-2.8,14.6-2.5,29-5.6,42.9-10.3,9.7-3.3,19.1-7.4,28-12.6.6-.3,1.1-.7,1.6-1.1,0,0,0-.3.2-.7Z"/>
        </g>
        <path class="cls-5" d="M1381.9,480.8c27.6-1.2,53.1,7.1,77.4,20.1,15,8,30.5,15.2,45.4,23.4,31.6,17.5,52.6,43.6,65,76.1,8.7,22.6,11.3,46.1,10,69.9-1.4,26.4-8.5,51.6-20.4,75.5-10.9,21.9-25.2,41.4-43,58.5-24.9,24-54.2,41.1-88.6,49.7-11.5,2.9-23.3,4.3-35.3,4.7-15.5.4-30.7-.9-45.7-4.7-12.5-3.1-24-8.5-35.2-14.4-16.4-8.7-33.1-16.8-49.2-26-29.3-16.6-49.4-40.9-61.9-71-7.6-18.4-11.1-37.6-11.7-57.4-1.4-44.1,11.7-84.1,37.4-120.3,22-31.1,50.6-55.3,86.9-70.6,21.7-9.1,44.3-14.4,68.8-13.6Z"/>
        <path class="cls-1" d="M1578.9,657.6c.7,37.5-9.5,70.9-27.8,102-15.6,26.6-36.4,49.2-62.5,67-25.4,17.4-53.6,28.7-84.9,31.9-42.5,4.3-80.8-5.7-113.2-33-27.5-23.1-43.8-52.4-50.2-86.5-7.5-40.2-2.2-79.1,15.2-116.5,12.2-26.2,29.2-49.2,51.1-68.8,29-25.8,62.5-43.3,102.2-48.1,35-4.2,68.3.7,98.6,19.2,27.3,16.7,46.7,39.5,58.9,68,9.1,21.2,13.3,43.3,12.6,64.8Z"/>
        <path class="cls-3" d="M1385.1,830.7c-28.8,0-53.2-8.8-74.7-26.8-21.9-18.4-35.1-41.2-40.4-70-6.3-34.1-1.9-67.7,13-99.9,10.5-22.7,25.4-42.7,44.1-59.4,26.4-23.5,54.3-36.8,85.4-40.6,6.5-.8,12.9-1.2,18.9-1.2,22.3,0,41.8,5.3,59.6,16.1,21.7,13.2,37.1,31.1,47.3,54.7,7.4,17.2,10.9,35,10.4,53v1.4c.6,30.4-7.3,59-24,87.5-13.6,23.2-31.7,42.6-53.8,57.7-22.6,15.4-45.6,24.1-70.5,26.6-5.3.5-10.4.8-15.4.8Z"/>
        <path class="cls-1" d="M1404.6,705.1c-.7,1.1-1.5,2.1-2.2,3.2-12.3,18.1-28.8,31.3-50.4,38.2-10.6,3.4-20.4-.7-24.8-10.1-2.6-5.7-2.7-11.7-.1-17.3,2.2-4.8,5.3-9.3,8-14,.9-1.5,1.8-3.2,2.1-4.8.5-2.8-.8-4.9-3.4-6.6-2.4-1.5-4.9-3.2-7-5.1-12.4-11.4-9.1-25.6-.3-34.7,6-6.2,13.6-7.8,22.1-7.2,7.3.5,14.5,1.5,21.5,3.5.6.2,1.3.2,2.5.5-.6-1.3-.9-2.3-1.4-3.1-3.8-7.2-6.3-14.9-7.7-22.9-2.4-13.9,9.1-28.4,23.8-29.6,5.6-.5,10.3,1.9,14.8,4.6,2.6,1.6,5.2,3.4,7.7,5.3,2.9,2.1,4.3,1.9,5.8-1.2,3.6-7.1,8.3-13.4,15-18.1,5.4-3.9,11.4-5.7,18.1-3.9,8.4,2.3,13.9,9.2,14,17.6,0,8.1-1.8,16-4.1,23.7-1,3.5-2.4,6.8-3.6,10.3-.4,1-.7,2-1.2,3.6,1.3-.5,2.1-.7,2.8-1.1,7-3.2,14.1-6,21.8-7.3,10.6-1.7,19.8,4.8,21.7,14.9,1.1,5.9-.1,11.5-3.3,16.5-2.1,3.4-4.6,6.6-7.2,9.6-3.7,4.3-6.1,8.9-4.5,14.5.6,2.2,2,4.2,3.3,6.1,2.7,4,5,8.1,5.4,13,1.1,13.4-10.8,28.3-26,27.7-16.9-.7-31.6-6.4-43.9-17.4-.9-.8-1.8-1.6-3.2-2.9,0,1.4-.1,2.3,0,3.1,3.4,21.7,1.6,43-5.1,63.9-.9,2.9-2.8,5.8-5,7.9-4.8,4.7-12,5.2-17.1,1.7-4.9-3.3-6.5-9.8-3.8-15.9,2.3-5.2,4.7-10.3,6.8-15.5,6.3-15.6,9.4-31.8,8.8-48.6,0-.6-.1-1.3-.2-1.9-.2,0-.4-.1-.6-.2Z"/>
      </g>
    </g>
  </g>
</svg>