<?xml version="1.0" encoding="utf-8"?><!-- Uploaded to: SVG Repo, www.svgrepo.com, Generator: SVG Repo Mixer Tools -->
<svg width="800px" height="800px" viewBox="0 0 24 24" fill="none" xmlns="http://www.w3.org/2000/svg">
  <path d="M12 2C6.48 2 2 6.48 2 12C2 17.52 6.48 22 12 22C17.52 22 22 17.52 22 12C22 6.48 17.52 2 12 2Z" stroke="#e8b30b" stroke-width="1.5" stroke-linecap="round" stroke-linejoin="round"/>
  <path d="M12 6C9.79 6 8 7.79 8 10V14C8 16.21 9.79 18 12 18C14.21 18 16 16.21 16 14V10C16 7.79 14.21 6 12 6Z" stroke="#e8b30b" stroke-width="1.5" stroke-linecap="round" stroke-linejoin="round"/>
  <path d="M6 10H4V14H6M18 10H20V14H18" stroke="#e8b30b" stroke-width="1.5" stroke-linecap="round" stroke-linejoin="round"/>
</svg>